<svg width="68" height="10" viewBox="0 0 68 10" fill="none" xmlns="http://www.w3.org/2000/svg">
<g clip-path="url(#clip0)">
<path d="M19.8907 4.18506H14.9733V2.55517H21.1638V0.925293H14.9619C14.5312 0.925293 14.1181 1.09582 13.8135 1.39936C13.509 1.7029 13.3379 2.11459 13.3379 2.54386V4.19637C13.3379 4.62564 13.509 5.03733 13.8135 5.34087C14.1181 5.64441 14.5312 5.81494 14.9619 5.81494H19.8794V7.44482H13.4548V9.0747H19.8907C20.3214 9.0747 20.7345 8.90417 21.039 8.60063C21.3436 8.29709 21.5147 7.8854 21.5147 7.45613V5.80362C21.5147 5.37435 21.3436 4.96266 21.039 4.65912C20.7345 4.35558 20.3214 4.18506 19.8907 4.18506Z" fill="#F8F7F8"/>
<path d="M29.413 0.925293H24.4774C24.2641 0.925293 24.0531 0.967166 23.8561 1.04852C23.6591 1.12988 23.4802 1.24912 23.3294 1.39943C23.1788 1.54974 23.0593 1.72818 22.9777 1.92455C22.8962 2.12091 22.8544 2.33135 22.8545 2.54386V7.45613C22.8544 7.66864 22.8962 7.87908 22.9777 8.07545C23.0593 8.27181 23.1788 8.45025 23.3294 8.60057C23.4802 8.75088 23.6591 8.87012 23.8561 8.95147C24.0531 9.03282 24.2641 9.0747 24.4774 9.0747H29.413C29.8437 9.0747 30.2568 8.90417 30.5614 8.60063C30.8659 8.29709 31.037 7.8854 31.037 7.45613V2.54386C31.037 2.11459 30.8659 1.7029 30.5614 1.39936C30.2568 1.09582 29.8437 0.925293 29.413 0.925293ZM29.4017 7.44482H24.4956V2.55517H29.4017V7.44482Z" fill="#F8F7F8"/>
<path d="M46.687 0.925293H41.874C41.4433 0.925293 41.0302 1.09582 40.7257 1.39936C40.4211 1.7029 40.25 2.11459 40.25 2.54386V9.0747H41.8854V6.39671H46.6756V9.0747H48.311V2.54386C48.3112 2.33126 48.2693 2.12073 48.1877 1.92428C48.1062 1.72784 47.9865 1.54935 47.8356 1.39903C47.6849 1.2487 47.5058 1.12948 47.3087 1.0482C47.1116 0.966908 46.9003 0.925145 46.687 0.925293ZM46.6756 4.76683H41.8854V2.55517H46.6756V4.76683Z" fill="#F8F7F8"/>
<path d="M65.8348 0.925297H61.023C60.8094 0.92485 60.5978 0.966386 60.4004 1.04753C60.203 1.12867 60.0236 1.24782 59.8724 1.39816C59.7212 1.5485 59.6013 1.72708 59.5195 1.92368C59.4377 2.12027 59.3955 2.33102 59.3955 2.54386V9.0747H61.0309V6.39672H65.8234V9.0747H67.4588V2.54386C67.4588 2.11459 67.2877 1.7029 66.9832 1.39936C66.6786 1.09582 66.2655 0.925297 65.8348 0.925297ZM65.8234 4.76684H61.0343V2.55517H65.8234V4.76684Z" fill="#F8F7F8"/>
<path d="M56.3071 7.44482H55.653L53.3089 1.60441C53.2288 1.40402 53.0901 1.2322 52.911 1.11114C52.7318 0.990077 52.5203 0.925341 52.3039 0.925293H50.8479C50.5609 0.925293 50.2856 1.03894 50.0826 1.24123C49.8797 1.44352 49.7656 1.71788 49.7656 2.00396V9.0747H51.401V2.55517H52.0551L54.3981 8.39558C54.4779 8.59597 54.6163 8.76784 54.7952 8.88893C54.9743 9.01001 55.1856 9.07473 55.4019 9.0747H56.8579C57.145 9.0747 57.4203 8.96106 57.6232 8.75877C57.8262 8.55647 57.9402 8.28212 57.9402 7.99603V0.925293H56.3048L56.3071 7.44482Z" fill="#F8F7F8"/>
<path d="M34.1217 0.925293H32.4863V7.45613C32.4863 7.8854 32.6574 8.29709 32.962 8.60063C33.2666 8.90417 33.6796 9.0747 34.1104 9.0747H39.0278V7.44482H34.1217V0.925293Z" fill="#F8F7F8"/>
<path fill-rule="evenodd" clip-rule="evenodd" d="M1.73138 7.13921C1.76041 7.10787 1.7955 7.0827 1.83452 7.06519C1.87355 7.0477 1.91572 7.03822 1.95851 7.03735H9.09505C9.12529 7.03777 9.15467 7.04688 9.1798 7.06358C9.20493 7.08028 9.22469 7.10386 9.2367 7.13147C9.24871 7.1591 9.25245 7.18958 9.24743 7.21927C9.24249 7.24895 9.22903 7.27658 9.20868 7.29881L7.69593 8.97283C7.6669 9.00417 7.63182 9.02935 7.59279 9.04685C7.55376 9.06436 7.51159 9.07382 7.4688 9.0747H0.327685C0.297491 9.07428 0.268061 9.06517 0.242937 9.04847C0.217813 9.03177 0.198065 9.00819 0.186068 8.98057C0.174071 8.95295 0.170337 8.92247 0.175312 8.89278C0.180288 8.8631 0.193764 8.83547 0.214118 8.81324L1.73138 7.13921ZM9.21549 5.75155C9.23585 5.77378 9.2493 5.80141 9.25424 5.83109C9.25927 5.86078 9.25552 5.89126 9.24351 5.91888C9.2315 5.94651 9.21174 5.97008 9.18661 5.98678C9.16149 6.00348 9.1321 6.01259 9.10186 6.01301L1.96305 6.01867C1.92027 6.0178 1.87809 6.00833 1.83906 5.99083C1.80004 5.97332 1.76495 5.94815 1.73592 5.9168L0.211847 4.24844C0.191493 4.22621 0.178018 4.19859 0.173041 4.1689C0.168065 4.13922 0.1718 4.10873 0.183797 4.08111C0.195794 4.05348 0.215542 4.02991 0.240666 4.01321C0.265789 3.99652 0.295219 3.98741 0.325415 3.98698L7.46426 3.98132C7.50705 3.98219 7.54922 3.99166 7.58825 4.00916C7.62727 4.02667 7.66236 4.05185 7.69139 4.08319L9.21549 5.75155ZM1.73138 1.02716C1.76041 0.995821 1.7955 0.970645 1.83452 0.953141C1.87355 0.935637 1.91572 0.926165 1.95851 0.925293L9.09965 0.930952C9.1298 0.931376 9.15927 0.940485 9.1844 0.957184C9.20953 0.973883 9.22929 0.997461 9.24121 1.02508C9.25322 1.0527 9.25697 1.08319 9.25203 1.11287C9.247 1.14256 9.23355 1.17018 9.21319 1.19241L7.69593 2.86078C7.6669 2.89212 7.63182 2.9173 7.59279 2.9348C7.55376 2.95231 7.51159 2.96177 7.4688 2.96264H0.327685C0.297491 2.96222 0.268061 2.95311 0.242937 2.93641C0.217813 2.91972 0.198065 2.89613 0.186068 2.86852C0.174071 2.8409 0.170337 2.81041 0.175312 2.78073C0.180288 2.75104 0.193764 2.72342 0.214118 2.70118L1.73138 1.02716Z" fill="url(#paint0_linear)"/>
</g>
<defs>
<linearGradient id="paint0_linear" x1="0.446931" y1="9.2524" x2="8.95172" y2="0.719003" gradientUnits="userSpaceOnUse">
<stop stop-color="#9945FF"/>
<stop offset="0.14" stop-color="#8A53F4"/>
<stop offset="0.42" stop-color="#6377D6"/>
<stop offset="0.79" stop-color="#24B0A7"/>
<stop offset="0.99" stop-color="#00D18C"/>
<stop offset="1" stop-color="#00D18C"/>
</linearGradient>
<clipPath id="clip0">
<rect width="67.459" height="8.14941" fill="white" transform="translate(0 0.925293)"/>
</clipPath>
</defs>
</svg>
